<?xml version="1.0" standalone="no"?>
<!DOCTYPE svg PUBLIC "-//W3C//DTD SVG 20010904//EN"
 "http://www.w3.org/TR/2001/REC-SVG-20010904/DTD/svg10.dtd">
<svg version="1.0" xmlns="http://www.w3.org/2000/svg"
 width="146.000000pt" height="80.000000pt" viewBox="0 0 146.000000 80.000000"
 preserveAspectRatio="xMidYMid meet">

<g transform="translate(0.000000,80.000000) scale(0.100000,-0.100000)"
fill="#000000" stroke="none">
<path d="M451 686 l-23 -24 27 -41 c23 -38 25 -45 14 -81 -12 -41 -26 -49
-104 -62 -16 -3 -20 -11 -20 -42 0 -39 1 -40 50 -52 83 -22 104 -72 56 -131
-37 -45 -38 -53 -8 -81 30 -28 35 -28 84 8 l42 31 39 -20 c34 -17 40 -26 51
-75 l12 -56 39 0 c42 0 45 4 55 74 4 25 8 46 10 46 1 0 18 7 37 15 34 14 37
13 84 -17 l48 -30 23 28 23 29 -52 52 -51 52 -37 -33 c-72 -65 -162 -72 -248
-19 -61 37 -95 97 -95 167 -1 58 19 104 68 156 26 27 32 41 28 62 -3 15 -9 25
-14 22 -5 -3 -29 6 -54 20 -53 32 -56 32 -84 2z"/>
<path d="M847 654 c-16 -16 -5 -44 34 -88 45 -51 54 -55 62 -26 4 15 -2 25
-21 38 -15 9 -30 20 -33 25 -3 5 -9 8 -13 8 -23 -3 -30 0 -17 8 9 6 10 14 4
25 -5 9 -12 13 -16 10z"/>
<path d="M874 515 c11 -8 27 -15 35 -15 10 1 7 6 -9 15 -33 19 -50 18 -26 0z"/>
</g>
</svg>
